<svg xmlns="http://www.w3.org/2000/svg" viewBox="0 0 160 166.92"><defs><style>.cls-1{fill:#6393a0;}</style></defs><title>Asset 1</title><g id="Layer_2" data-name="Layer 2"><g id="Layer_1-2" data-name="Layer 1"><g id="lung"><path class="cls-1" d="M109.37,34.84a6.1,6.1,0,0,0-4.56,1.3C102,38.26,98.05,43.92,94.8,68,93,66.21,90,65.09,90,61.54V6.21A6.27,6.27,0,0,0,83.63,0H76.37a6.27,6.27,0,0,0-6.32,6.21V61.54c0,3.56-3.07,4.67-4.85,6.49C62,43.92,58,38.26,55.19,36.14a6.1,6.1,0,0,0-4.56-1.3C6.88,40.6-.63,107.16,0,150.71a16.7,16.7,0,0,0,16.78,16.21H33.9c20.23,0,36.4-16.4,35.76-36.25-.53-16.32-1.34-30.92-2.41-43.46l9.5-7.32a5.34,5.34,0,0,1,6.5,0l9.5,7.32c-1.07,12.54-1.88,27.14-2.41,43.46-.64,19.85,15.53,36.25,35.76,36.25h17.08A16.7,16.7,0,0,0,160,150.71c.67-43.6-6.86-110.11-50.59-115.87Z"/></g></g></g></svg>